<?xml version="1.0" encoding="UTF-8" standalone="no"?>
<!-- Created with Inkscape (http://www.inkscape.org/) -->

<svg
   width="38.164093mm"
   height="36.821751mm"
   viewBox="0 0 38.164093 36.821751"
   version="1.1"
   id="svg1"
   xml:space="preserve"
   inkscape:version="1.4.2 (f4327f4, 2025-05-13)"
   sodipodi:docname="isologo_negro.svg"
   xmlns:inkscape="http://www.inkscape.org/namespaces/inkscape"
   xmlns:sodipodi="http://sodipodi.sourceforge.net/DTD/sodipodi-0.dtd"
   xmlns="http://www.w3.org/2000/svg"
   xmlns:svg="http://www.w3.org/2000/svg"><sodipodi:namedview
     id="namedview1"
     pagecolor="#ffffff"
     bordercolor="#000000"
     borderopacity="0.25"
     inkscape:showpageshadow="2"
     inkscape:pageopacity="0.0"
     inkscape:pagecheckerboard="0"
     inkscape:deskcolor="#d1d1d1"
     inkscape:document-units="mm"
     inkscape:zoom="5.5090348"
     inkscape:cx="35.8502"
     inkscape:cy="78.5074"
     inkscape:window-width="1920"
     inkscape:window-height="991"
     inkscape:window-x="-9"
     inkscape:window-y="-9"
     inkscape:window-maximized="1"
     inkscape:current-layer="layer1"><inkscape:page
       x="-2.266185e-13"
       y="0"
       width="38.164097"
       height="36.821751"
       id="page2"
       margin="0"
       bleed="0" /></sodipodi:namedview><defs
     id="defs1"><rect
       x="160.69924"
       y="4.1073287"
       width="523.171"
       height="121.67961"
       id="rect2" /><inkscape:path-effect
       effect="powerclip"
       message=""
       id="path-effect14-5"
       is_visible="true"
       lpeversion="1"
       inverse="true"
       flatten="false"
       hide_clip="false" /><inkscape:path-effect
       effect="powerclip"
       message=""
       id="path-effect15-1"
       is_visible="true"
       lpeversion="1"
       inverse="true"
       flatten="false"
       hide_clip="false" /><clipPath
       clipPathUnits="userSpaceOnUse"
       id="clipath_lpe_path-effect14-5"><g
         id="g17"
         style="display:none"><path
           style="display:inline;opacity:1;fill:#000000;fill-opacity:1;stroke-width:0.264583"
           d="m 57.728654,174.24256 18.346377,-22.0925 24.589909,-15.84896 4.03428,-12.48707 18.53849,-21.99644 27.56759,50.14036 -26.7031,-24.87807 -3.45796,25.35835 -45.049481,39.67043 28.239971,-44.47315 z"
           id="path16" /><path
           style="opacity:1;fill:#000000;fill-opacity:1;stroke-width:0.264583"
           d="m 148.27082,178.22384 13.51622,-20.98749 15.48591,7.94672 4.34692,10.45978 16.91225,17.86314 -20.98749,-13.51621 -17.52353,14.8067 7.06375,-28.18708 z"
           id="path17" /></g><path
         id="lpe_path-effect14-5"
         class="powerclip"
         d="M 20.354304,84.247759 H 219.901 V 205.15882 H 20.354304 Z m 37.37435,89.994801 46.106076,-26.60705 -28.239971,44.47315 45.049481,-39.67043 3.45796,-25.35835 26.7031,24.87807 -27.56759,-50.14036 -18.53849,21.99644 -4.03428,12.48707 -24.589909,15.84896 z m 90.542166,3.98128 18.81403,-11.61444 -7.06375,28.18708 17.52353,-14.8067 20.98749,13.51621 -16.91225,-17.86314 -4.34692,-10.45978 -15.48591,-7.94672 z" /></clipPath><clipPath
       clipPathUnits="userSpaceOnUse"
       id="clipath_lpe_path-effect15-1"><path
         style="display:none;opacity:1;fill:#000000;fill-opacity:1;stroke-width:0.264583"
         d="m 106.04398,205.55627 c 57.19572,17.63826 8.7107,47.99363 -26.703103,61.28266 l 23.245153,15.17658 53.59831,-2.30529 c -28.35552,-17.37505 50.24617,-65.0255 -36.50064,-74.73027 z"
         id="path18"
         sodipodi:nodetypes="cccccc" /><path
         id="lpe_path-effect15-1"
         style="opacity:1;fill:#000000;fill-opacity:1;stroke-width:0.264583"
         class="powerclip"
         d="M 21.353447,201.72327 H 219.08598 v 75.06789 H 21.353447 Z m 84.690533,3.833 c 57.19572,17.63826 8.7107,47.99363 -26.703103,61.28266 l 23.245153,15.17658 53.59831,-2.30529 c -28.35552,-17.37505 50.24617,-65.0255 -36.50064,-74.73027 z" /></clipPath></defs><g
     inkscape:label="Capa 1"
     inkscape:groupmode="layer"
     id="layer1"
     transform="translate(-27.941659,-19.346989)"><rect
       style="display:none;fill:#000000;stroke-width:0.264583;fill-opacity:1"
       id="rect1"
       width="254.35187"
       height="342.33762"
       x="-6.9159117"
       y="-0.38421732"
       inkscape:label="Fondo" /><text
       xml:space="preserve"
       transform="matrix(0.06180846,0,0,0.06180846,27.976809,33.16312)"
       id="text1"
       style="font-weight:800;font-size:85.3333px;font-family:Montserrat;-inkscape-font-specification:'Montserrat Ultra-Bold';text-align:start;writing-mode:lr-tb;direction:ltr;white-space:pre;shape-inside:url(#rect2);display:inline;fill:#000000;fill-opacity:1;stroke:#000000;stroke-opacity:1"
       inkscape:label="Texto"><tspan
         x="160.69922"
         y="82.536703"
         id="tspan2">OnubHike</tspan></text></g><g
     inkscape:groupmode="layer"
     id="layer3-5"
     inkscape:label="Capa 3"
     transform="translate(-78.695963,-27.896832)"
     style="display:inline;opacity:1"><path
       style="display:inline;opacity:1;fill:#000000;fill-opacity:1;stroke-width:0.264583"
       d="m 25.354304,200.12726 43.653098,-53.82614 20.512042,-12.63324 9.101368,-16.4368 24.315598,-27.983321 45.64269,63.437911 12.08988,6.52038 34.23202,40.88824 -91.99613,0.0563 2.74837,-13.09704 -19.88087,13.01747 -50.7086,0.0878 2.532957,-8.07914 -12.313534,8.03111 z"
       id="path1-2"
       sodipodi:nodetypes="ccccccccccccccc"
       clip-path="url(#clipath_lpe_path-effect14-5)"
       inkscape:path-effect="#path-effect14-5"
       inkscape:original-d="m 25.354304,200.12726 43.653098,-53.82614 20.512042,-12.63324 9.101368,-16.4368 24.315598,-27.983321 45.64269,63.437911 12.08988,6.52038 34.23202,40.88824 -91.99613,0.0563 2.74837,-13.09704 -19.88087,13.01747 -50.7086,0.0878 2.532957,-8.07914 -12.313534,8.03111 z"
       transform="matrix(0.04703534,0,0,0.04703534,77.887633,36.378204)"
       inkscape:label="Montania" /><path
       id="path4-7"
       style="opacity:1;fill:#000000;fill-opacity:1;stroke-width:0.184508"
       d="m 214.08598,206.72327 a 93.866264,65.067894 0 0 1 -46.93314,56.35045 93.866264,65.067894 0 0 1 -93.866263,0 93.866264,65.067894 0 0 1 -46.93313,-56.35045"
       clip-path="url(#clipath_lpe_path-effect15-1)"
       inkscape:path-effect="#path-effect15-1"
       inkscape:original-d="m 214.08598,206.72327 a 93.866264,65.067894 0 0 1 -46.93314,56.35045 93.866264,65.067894 0 0 1 -93.866263,0 93.866264,65.067894 0 0 1 -46.93313,-56.35045"
       transform="matrix(0.04703534,0,0,0.04703534,77.887633,36.394024)"
       inkscape:label="Rio" /></g></svg>
